HIERARCHY
ROOT Hips
{
	OFFSET 0.00 0.00 0.00
	CHANNELS 6 Xposition Yposition Zposition Xrotation Yrotation Zrotation
	JOINT Spine
	{
		OFFSET 0.00000 1.72418 2.58627
		CHANNELS 3 Xrotation Yrotation Zrotation
		JOINT Spine1
		{
			OFFSET 0.00000 0.59880 3.39597
			CHANNELS 3 Xrotation Yrotation Zrotation
			JOINT Spine2
			{
				OFFSET 0.00000 0.30055 3.43524
				CHANNELS 3 Xrotation Yrotation Zrotation
				JOINT Spine3
				{
					OFFSET 0.00000 0.00000 3.44836
					CHANNELS 3 Xrotation Yrotation Zrotation
					JOINT Neck
					{
						OFFSET 0.00000 -1.29313 9.05195
						CHANNELS 3 Xrotation Yrotation Zrotation
						JOINT Head
						{
							OFFSET 0.00000 -0.82335 4.66946
							CHANNELS 3 Xrotation Yrotation Zrotation
							End Site
							{
								OFFSET 0.00000 0.00001 5.58203
							}
						}
					}
					JOINT RightShoulder
					{
						OFFSET -1.18828 -1.98046 6.41673
						CHANNELS 3 Xrotation Yrotation Zrotation
						JOINT RightArm
						{
							OFFSET -5.90180 0.00000 0.00000
							CHANNELS 3 Xrotation Yrotation Zrotation
							JOINT RightForeArm
							{
								OFFSET -11.45951 0.00000 0.00000
								CHANNELS 3 Xrotation Yrotation Zrotation
								JOINT RightHand
								{
									OFFSET -10.63451 0.00000 0.00000
									CHANNELS 3 Xrotation Yrotation Zrotation
									JOINT RightHandEnd
									{
										OFFSET -2.86944 0.00000 0.00000
										CHANNELS 3 Xrotation Yrotation Zrotation
										End Site
										{
											OFFSET -2.86944 0.00000 0.00000
										}
									}
									JOINT RightHandThumb1
									{
										OFFSET -1.14778 -1.91296 -0.76518
										CHANNELS 3 Yrotation Xrotation Zrotation
										End Site
										{
											OFFSET -2.77167 -0.74267 0.00000
										}
									}
								}
							}
						}
					}
					JOINT LeftShoulder
					{
						OFFSET 1.18828 -1.98046 6.41673
						CHANNELS 3 Xrotation Yrotation Zrotation
						JOINT LeftArm
						{
							OFFSET 5.90180 0.00000 0.00000
							CHANNELS 3 Xrotation Yrotation Zrotation
							JOINT LeftForeArm
							{
								OFFSET 11.45951 0.00000 0.00000
								CHANNELS 3 Xrotation Yrotation Zrotation
								JOINT LeftHand
								{
									OFFSET 10.63451 0.00000 0.00000
									CHANNELS 3 Xrotation Yrotation Zrotation
									JOINT LeftHandEnd
									{
										OFFSET 2.86944 0.00000 0.00000
										CHANNELS 3 Xrotation Yrotation Zrotation
										End Site
										{
											OFFSET 2.86944 0.00000 0.00000
										}
									}
									JOINT LeftHandThumb1
									{
										OFFSET 1.14778 -1.91296 -0.76518
										CHANNELS 3 Yrotation Xrotation Zrotation
										End Site
										{
											OFFSET 2.77167 -0.74267 0.00000
										}
									}
								}
							}
						}
					}
				}
			}
		}
	}
	JOINT RightUpLeg
	{
		OFFSET -3.52524 0.00000 -1.02984
		CHANNELS 3 Xrotation Yrotation Zrotation
		JOINT RightLeg
		{
			OFFSET 0.00001 0.00000 -17.80965
			CHANNELS 3 Xrotation Yrotation Zrotation
			JOINT RightFoot
			{
				OFFSET 0.00001 0.00000 -17.00908
				CHANNELS 3 Xrotation Yrotation Zrotation
				JOINT RightToeBase
				{
					OFFSET 0.00000 -5.55853 -2.02314
					CHANNELS 3 Xrotation Yrotation Zrotation
					End Site
					{
						OFFSET 0.00000 -2.85188 -0.00000
					}
				}
			}
		}
	}
	JOINT LeftUpLeg
	{
		OFFSET 3.52524 0.00000 -1.02984
		CHANNELS 3 Xrotation Yrotation Zrotation
		JOINT LeftLeg
		{
			OFFSET 0.00001 0.00000 -17.80965
			CHANNELS 3 Xrotation Yrotation Zrotation
			JOINT LeftFoot
			{
				OFFSET 0.00001 0.00000 -17.00908
				CHANNELS 3 Xrotation Yrotation Zrotation
				JOINT LeftToeBase
				{
					OFFSET 0.00000 -5.55853 -2.02314
					CHANNELS 3 Xrotation Yrotation Zrotation
					End Site
					{
						OFFSET 0.00000 -2.85188 -0.00000
					}
				}
			}
		}
	}
}
MOTION
Frames: 15
Frame Time: 0.008342
 -0.7276 -15.8541 36.1630 -0.3799 9.2334 -164.1958 2.7844 5.8122 -2.0955 1.0627 -0.4052 -0.0828 0.2831 -1.8236 -0.2619 0.6813 -0.3842 0.7229 5.2491 0.4750 11.0357 -5.3591 2.1041 32.9356 4.9918 5.9026 -8.3437 -52.6633 -9.0178 -15.0954 -0.0000 0.0000 41.6239 -54.7212 15.7896 -0.7497 0.0000 -0.0000 0.0000 -0.0000 0.0000 0.0000 9.2354 -3.6198 -2.4757 -65.4971 1.9461 12.0899 -0.0000 -0.0000 -40.0999 -46.8181 -14.1249 -3.8664 0.0000 -0.0000 -0.0000 0.0000 -0.0000 0.0000 -25.3422 13.6511 -39.8461 11.5228 0.0000 0.0000 1.9925 -4.2935 8.8583 -16.7127 0.0000 -0.0000 11.2796 9.0351 -1.3519 20.6065 0.0000 0.0000 -17.4790 0.9287 1.8865 -9.9358 0.0000 -0.0000
 -0.7134 -15.6219 36.1232 -0.5002 9.1735 -164.2071 2.8094 5.7484 -2.0429 1.0536 -0.3586 -0.0877 0.4393 -1.8727 -0.3017 0.6885 -0.3973 0.6938 4.8171 0.5433 11.0764 -5.4152 2.0522 32.7653 5.5869 4.5245 -8.3434 -52.5039 -10.0552 -15.4931 -0.0000 0.0000 41.4823 -54.7212 16.0065 -1.1210 0.0000 -0.0000 0.0000 0.0000 -0.0000 -0.0000 9.3465 -2.3942 -2.5024 -64.6424 2.9937 12.7380 -0.0000 -0.0000 -40.0872 -47.0529 -14.3232 -3.4688 -0.0000 0.0000 -0.0000 0.0000 0.0000 0.0000 -25.8372 13.6354 -37.9277 12.5679 0.0000 0.0000 2.7154 -2.6509 7.7051 -16.8381 0.0000 -0.0000 11.5409 8.8447 -1.3440 20.5354 0.0000 0.0000 -17.4794 1.1540 1.7613 -10.4124 0.0000 -0.0000
 -0.6984 -15.3858 36.0905 -0.6004 9.0921 -164.2734 2.8420 5.6811 -1.9974 1.0494 -0.3324 -0.0979 0.6080 -1.9261 -0.3259 0.6941 -0.4235 0.6675 4.3459 0.6287 11.1403 -5.4794 2.0041 32.6064 6.2545 3.1931 -8.2828 -52.3217 -11.1663 -15.8526 -0.0000 0.0000 41.3088 -54.7810 16.2267 -1.4797 -0.0000 0.0000 0.0000 -0.0000 -0.0000 0.0000 9.5929 -1.2053 -2.4906 -63.8674 4.1052 13.4627 -0.0000 -0.0000 -40.1237 -47.2835 -14.5186 -3.0482 -0.0000 -0.0000 -0.0000 0.0000 -0.0000 0.0000 -26.3652 13.5732 -35.9205 13.6980 0.0000 0.0000 3.3754 -1.0723 6.4741 -16.8161 0.0000 -0.0000 11.7850 8.6448 -1.3363 20.5134 0.0000 0.0000 -17.3949 1.3762 1.6714 -10.9873 0.0000 -0.0000
 -0.6829 -15.1447 36.0656 -0.6845 8.9992 -164.3912 2.8774 5.6196 -1.9634 1.0465 -0.3176 -0.1070 0.7904 -1.9918 -0.3409 0.6998 -0.4608 0.6494 3.8473 0.7286 11.2242 -5.5558 1.9608 32.4570 6.9836 1.9319 -8.1550 -52.0839 -12.3597 -16.1871 -0.0000 0.0000 41.1031 -54.8800 16.4338 -1.8258 0.0000 -0.0000 -0.0000 -0.0000 0.0000 0.0000 9.9939 -0.0719 -2.4530 -63.1823 5.2955 14.2691 -0.0000 -0.0000 -40.1988 -47.5000 -14.7089 -2.6239 -0.0000 -0.0000 -0.0000 0.0000 0.0000 -0.0000 -26.9123 13.4698 -33.8866 14.8929 0.0000 0.0000 3.9063 0.3703 5.2026 -16.6534 0.0000 -0.0000 12.0118 8.4472 -1.3377 20.5416 0.0000 0.0000 -17.2113 1.5923 1.6200 -11.6526 0.0000 -0.0000
 -0.6665 -14.8964 36.0495 -0.7425 8.8947 -164.5556 2.9153 5.5622 -1.9400 1.0503 -0.3123 -0.1172 0.9822 -2.0697 -0.3409 0.7072 -0.5077 0.6364 3.3383 0.8378 11.3234 -5.6488 1.9243 32.3141 7.7573 0.7548 -7.9548 -51.7551 -13.6350 -16.5028 -0.0000 0.0000 40.8643 -54.9902 16.6094 -2.1589 0.0000 0.0000 -0.0000 -0.0000 0.0000 -0.0000 10.5566 0.9913 -2.4112 -62.5854 6.5714 15.1571 -0.0000 -0.0000 -40.3002 -47.6987 -14.8944 -2.2140 -0.0000 0.0000 0.0000 -0.0000 -0.0000 0.0000 -27.4417 13.3180 -31.9008 16.1219 0.0000 0.0000 4.2533 1.6302 3.9335 -16.3631 0.0000 -0.0000 12.2341 8.2460 -1.3454 20.6210 0.0000 0.0000 -16.9187 1.8018 1.5984 -12.4011 0.0000 -0.0000
 -0.6493 -14.6407 36.0424 -0.7886 8.7879 -164.7574 2.9425 5.5223 -1.9279 1.0559 -0.3190 -0.1266 1.1837 -2.1550 -0.3303 0.7178 -0.5635 0.6307 2.8334 0.9512 11.4325 -5.7594 1.8955 32.1761 8.5563 -0.3292 -7.6809 -51.3080 -14.9914 -16.7998 -0.0000 0.0000 40.5898 -55.0803 16.7332 -2.4803 0.0000 -0.0000 -0.0000 0.0000 0.0000 0.0000 11.2705 1.9764 -2.3818 -62.0646 7.9408 16.1158 -0.0000 -0.0000 -40.4134 -47.8716 -15.0742 -1.8297 0.0000 -0.0000 -0.0000 -0.0000 0.0000 0.0000 -27.9461 13.1307 -30.0131 17.3642 0.0000 0.0000 4.3757 2.6860 2.6992 -15.9625 0.0000 -0.0000 12.4379 8.0532 -1.3681 20.7579 0.0000 0.0000 -16.5071 2.0039 1.6058 -13.2278 0.0000 -0.0000
 -0.6309 -14.3758 36.0447 -0.8152 8.6785 -164.9880 2.9627 5.4934 -1.9267 1.0626 -0.3327 -0.1337 1.3904 -2.2468 -0.3113 0.7324 -0.6241 0.6318 2.3505 1.0618 11.5445 -5.8870 1.8746 32.0414 9.3578 -1.3205 -7.3352 -50.7174 -16.4202 -17.0727 -0.0000 0.0000 40.2775 -55.1198 16.7889 -2.7918 -0.0000 -0.0000 -0.0000 -0.0000 -0.0000 -0.0000 12.1171 2.8792 -2.3811 -61.5965 9.4082 17.1226 -0.0000 -0.0000 -40.5185 -48.0238 -15.2539 -1.4858 0.0000 -0.0000 -0.0000 -0.0000 -0.0000 0.0000 -28.3905 12.9071 -28.2788 18.5886 0.0000 0.0000 4.2575 3.5396 1.5336 -15.4631 0.0000 -0.0000 12.6314 7.8618 -1.4027 20.9559 0.0000 0.0000 -15.9707 2.2005 1.6298 -14.1298 0.0000 -0.0000
 -0.6112 -14.1011 36.0563 -0.8269 8.5686 -165.2356 2.9701 5.4761 -1.9349 1.0695 -0.3552 -0.1437 1.5976 -2.3380 -0.2808 0.7516 -0.6888 0.6402 1.9056 1.1666 11.6524 -6.0285 1.8602 31.9060 10.1407 -2.2221 -6.9283 -49.9719 -17.9159 -17.3126 -0.0000 0.0000 39.9249 -55.0776 16.7639 -3.0941 0.0000 -0.0000 -0.0000 -0.0000 0.0000 -0.0000 13.0581 3.7030 -2.4292 -61.1369 10.9662 18.1504 -0.0000 -0.0000 -40.5956 -48.1683 -15.4346 -1.1908 -0.0000 -0.0000 -0.0000 0.0000 0.0000 -0.0000 -28.7570 12.6540 -26.7311 19.7672 0.0000 0.0000 3.9069 4.2086 0.4589 -14.8705 0.0000 -0.0000 12.8077 7.6712 -1.4529 21.2210 0.0000 0.0000 -15.3048 2.3947 1.6626 -15.1104 0.0000 -0.0000
 -0.5902 -13.8161 36.0769 -0.8227 8.4635 -165.4907 2.9686 5.4690 -1.9486 1.0733 -0.3787 -0.1529 1.7995 -2.4287 -0.2488 0.7761 -0.7535 0.6529 1.5096 1.2590 11.7517 -6.1758 1.8510 31.7693 10.8810 -3.0431 -6.4672 -49.0625 -19.4682 -17.5080 -0.0000 0.0000 39.5281 -54.9326 16.6544 -3.3859 -0.0000 0.0000 -0.0000 0.0000 -0.0000 0.0000 14.0585 4.4461 -2.5239 -60.6566 12.6228 19.1677 -0.0000 -0.0000 -40.6259 -48.3033 -15.6225 -0.9411 -0.0000 0.0000 -0.0000 -0.0000 0.0000 -0.0000 -29.0266 12.3810 -25.3881 20.8762 0.0000 0.0000 3.3518 4.7223 -0.5060 -14.1825 0.0000 -0.0000 12.9677 7.4817 -1.5175 21.5563 0.0000 0.0000 -14.5050 2.5925 1.6921 -16.1774 0.0000 -0.0000
 -0.5674 -13.5204 36.1058 -0.8060 8.3603 -165.7431 2.9550 5.4625 -1.9666 1.0740 -0.3918 -0.1582 1.9899 -2.5254 -0.2199 0.8037 -0.8125 0.6682 1.1755 1.3356 11.8377 -6.3219 1.8450 31.6298 11.5623 -3.7961 -5.9629 -47.9957 -21.0650 -17.6488 -0.0000 0.0000 39.0847 -54.6689 16.4631 -3.6658 0.0000 0.0000 -0.0000 0.0000 0.0000 0.0000 15.0665 5.1200 -2.6736 -60.0940 14.3616 20.1370 -0.0000 -0.0000 -40.5923 -48.4515 -15.8198 -0.7314 -0.0000 -0.0000 -0.0000 0.0000 0.0000 -0.0000 -29.1886 12.0895 -24.2532 21.8900 0.0000 0.0000 2.6418 5.1146 -1.3534 -13.3985 0.0000 -0.0000 13.1030 7.2865 -1.5926 21.9676 0.0000 0.0000 -13.5720 2.8003 1.7056 -17.3417 0.0000 -0.0000
 -0.5428 -13.2139 36.1422 -0.7728 8.2544 -165.9832 2.9369 5.4456 -1.9838 1.0665 -0.4016 -0.1641 2.1643 -2.6092 -0.1963 0.8337 -0.8682 0.6868 0.9095 1.3936 11.9027 -6.4572 1.8384 31.4857 12.1640 -4.5040 -5.4366 -46.7711 -22.6919 -17.7127 -0.0000 0.0000 38.5926 -54.2875 16.2099 -3.9351 -0.0000 -0.0000 0.0000 0.0000 0.0000 0.0000 16.0394 5.7277 -2.8808 -59.4079 16.1741 21.0274 -0.0000 -0.0000 -40.4812 -48.6165 -16.0253 -0.5474 -0.0000 0.0000 -0.0000 0.0000 -0.0000 0.0000 -29.2292 11.7784 -23.3260 22.7872 0.0000 0.0000 1.8347 5.4232 -2.0757 -12.5135 0.0000 -0.0000 13.2129 7.0748 -1.6736 22.4587 0.0000 0.0000 -12.5079 3.0259 1.6898 -18.6183 0.0000 -0.0000
 -0.5162 -12.8979 36.1847 -0.7476 8.1449 -166.2019 2.8903 5.4286 -1.9968 1.0555 -0.4070 -0.1679 2.3164 -2.6951 -0.1824 0.8654 -0.9138 0.7000 0.7129 1.4362 11.9503 -6.5726 1.8277 31.3354 12.6745 -5.1654 -4.8953 -45.4178 -24.3452 -17.7116 0.0000 0.0000 38.0530 -53.7927 15.9031 -4.1898 -0.0000 0.0000 -0.0000 0.0000 -0.0000 0.0000 16.9401 6.2818 -3.1313 -58.5648 18.0540 21.8065 -0.0000 -0.0000 -40.2839 -48.7971 -16.2340 -0.3684 -0.0000 -0.0000 -0.0000 -0.0000 0.0000 0.0000 -29.1778 11.4547 -22.5759 23.5629 0.0000 0.0000 0.9908 5.6825 -2.6817 -11.5305 0.0000 -0.0000 13.2645 6.8483 -1.7546 23.0384 0.0000 0.0000 -11.3176 3.2754 1.6327 -20.0212 0.0000 -0.0000
 -0.4874 -12.5728 36.2323 -0.7277 8.0236 -166.3943 2.8231 5.3898 -2.0032 1.0351 -0.4018 -0.1708 2.4452 -2.7712 -0.1819 0.8962 -0.9507 0.7111 0.5855 1.4599 11.9744 -6.6605 1.8104 31.1797 13.0824 -5.8089 -4.3619 -43.9437 -26.0080 -17.6217 0.0000 0.0000 37.4639 -53.2099 15.5710 -4.4313 -0.0000 -0.0000 0.0000 0.0000 0.0000 0.0000 17.7365 6.7847 -3.4209 -57.5368 19.9893 22.4543 -0.0000 -0.0000 -39.9994 -48.9990 -16.4374 -0.1802 0.0000 -0.0000 0.0000 0.0000 0.0000 0.0000 -29.0345 11.1117 -21.9838 24.2094 0.0000 0.0000 0.1662 5.9260 -3.1773 -10.4587 0.0000 -0.0000 13.2534 6.5950 -1.8276 23.7103 0.0000 0.0000 -10.0078 3.5541 1.5233 -21.5620 0.0000 -0.0000
 -0.4561 -12.2384 36.2840 -0.6891 7.8792 -166.5596 2.7587 5.3208 -2.0019 1.0083 -0.3991 -0.1755 2.5455 -2.8351 -0.1971 0.9249 -0.9810 0.7203 0.5232 1.4725 11.9784 -6.7127 1.7842 31.0164 13.3878 -6.4285 -3.8504 -42.3851 -27.6816 -17.4582 0.0000 0.0000 36.8290 -52.5642 15.2291 -4.6595 -0.0000 0.0000 -0.0000 0.0000 -0.0000 0.0000 18.4091 7.2451 -3.7413 -56.3107 21.9682 22.9576 -0.0000 -0.0000 -39.6289 -49.2094 -16.6189 0.0392 0.0000 -0.0000 0.0000 0.0000 0.0000 0.0000 -28.7800 10.7329 -21.5282 24.7227 0.0000 0.0000 -0.5962 6.1799 -3.5778 -9.3146 0.0000 -0.0000 13.1999 6.2925 -1.8754 24.4716 0.0000 0.0000 -8.5853 3.8636 1.3432 -23.2458 0.0000 -0.0000
 -0.4232 -11.8979 36.3377 -0.6749 7.7169 -166.6943 2.6605 5.2291 -1.9905 0.9732 -0.3890 -0.1793 2.6212 -2.8920 -0.2276 0.9499 -1.0006 0.7219 0.5167 1.4727 11.9627 -6.7277 1.7484 30.8478 13.5878 -7.0402 -3.3729 -40.7617 -29.3531 -17.2156 0.0000 0.0000 36.1503 -51.8950 14.8927 -4.8762 -0.0000 -0.0000 0.0000 -0.0000 -0.0000 0.0000 18.9496 7.6657 -4.0789 -54.8965 23.9830 23.3106 -0.0000 -0.0000 -39.1793 -49.4158 -16.7626 0.2967 0.0000 -0.0000 0.0000 -0.0000 0.0000 0.0000 -28.4822 10.3352 -21.1624 25.1280 0.0000 0.0000 -1.2710 6.4624 -3.9037 -8.1217 0.0000 -0.0000 13.0507 5.9595 -1.9011 25.3344 0.0000 0.0000 -7.0585 4.1998 1.0957 -25.0660 0.0000 -0.0000
